<svg xmlns="http://www.w3.org/2000/svg" viewBox="0.00 0.00 512.00 512.00"><rect width="512" height="512" rx="118" fill="#141414"/><path fill="#ffffff" d="M 376.5,262.0 C 375.8,272.7 372.0,284.0 367.2,293.4 C 362.4,302.8 354.9,311.3 347.7,318.4 C 340.5,325.5 332.0,331.0 324.0,336.0 C 315.9,340.9 307.8,344.7 299.6,347.9 C 291.5,351.2 283.3,353.9 275.0,355.5 C 266.8,357.0 258.1,357.9 250.0,357.0 C 241.9,356.1 233.4,353.7 226.4,350.0 C 219.4,346.2 213.0,340.4 208.1,334.5 C 203.3,328.6 200.0,321.1 197.4,314.6 C 194.8,308.1 193.9,301.3 192.3,295.3 C 190.7,289.3 189.8,284.2 187.8,278.7 C 185.8,273.1 183.1,268.3 180.5,262.0 C 177.8,255.7 174.0,248.9 172.1,241.1 C 170.2,233.3 168.2,223.9 169.0,215.2 C 169.8,206.5 172.3,196.6 176.9,188.9 C 181.5,181.2 188.8,173.9 196.4,169.2 C 204.1,164.4 213.8,161.7 222.8,160.3 C 231.7,159.0 241.2,160.0 250.0,161.0 C 258.8,162.0 267.1,164.3 275.6,166.4 C 284.1,168.6 292.3,170.8 300.9,173.8 C 309.6,176.8 318.8,179.7 327.5,184.5 C 336.2,189.3 345.7,195.0 353.0,202.5 C 360.3,210.0 367.4,219.6 371.3,229.5 C 375.2,239.4 377.2,251.3 376.5,262.0 Z"/></svg>
