<svg xmlns="http://www.w3.org/2000/svg" viewBox="212.50 31.25 660.54 112.50"><g fill="#141414"><path d="M212.5 141.5V33.5H276.5001220703125V49.200286865234375H228.20028686523438V79.64985656738281H267.5001220703125V95.35014343261719H228.20028686523438V141.5Z"/><path d="M307.8249786376953 143.75Q298.8749938964844 143.75 292.77499771118164 140.42499923706055Q286.67500152587894 137.0999984741211 283.57500076293945 131.57499465942382Q280.475 126.04999084472657 280.475 119.44998168945312Q280.475 113.32501220703125 282.66247177124023 108.6625129699707Q284.8499435424805 104.00001373291016 289.09991989135744 100.72499618530274Q293.3498962402344 97.44997863769532 299.6249114990235 95.44995422363282Q304.97485961914066 93.8749496459961 311.81232223510744 92.66244583129884Q318.64978485107423 91.44994201660157 326.17480621337893 90.42493362426758Q333.6998275756836 89.3999252319336 341.124951171875 88.2999053955078L335.4748474121094 91.49995727539063Q335.59983978271487 81.92510223388672 331.4373832702637 77.33767623901367Q327.2749267578125 72.75025024414063 317.175048828125 72.75025024414063Q310.7751647949219 72.75025024414063 305.4626914978028 75.71270217895508Q300.15021820068364 78.67515411376954 298.025228881836 85.50007629394531L283.4249938964844 80.99999389648437Q286.37500152587893 70.55001831054688 294.81250381469727 64.40000915527344Q303.25000610351566 58.25 317.2750427246094 58.25Q328.17503204345707 58.25 336.22504882812507 61.97497406005859Q344.275065612793 65.69994812011718 348.02509765625 73.69995422363282Q349.9751251220703 77.69998474121094 350.4251251220703 82.12498931884767Q350.87512512207036 86.54999389648438 350.87512512207036 91.6000244140625V141.5H337.02488098144534V123.00011291503907L339.7248718261719 125.35018005371094Q334.6998168945313 134.65011138916014 326.9248725891114 139.20005569458007Q319.14992828369145 143.75 307.8249786376953 143.75ZM310.6250732421875 130.94980163574218Q317.3000091552735 130.94980163574218 322.112451171875 128.57482528686523Q326.9248931884766 126.19984893798828 329.8373550415039 122.51241836547851Q332.74981689453125 118.82498779296876 333.67481079101566 114.9001220703125Q334.92483062744145 111.30014038085938 335.0998359680176 106.77514877319337Q335.27484130859375 102.25015716552736 335.27484130859375 99.60014038085939L340.3748962402344 101.45011901855469Q332.9997924804688 102.57514190673828 326.91232070922854 103.46264953613282Q320.8248489379883 104.35015716552735 315.9249374389649 105.23765335083009Q311.02502593994143 106.12514953613282 307.17510070800785 107.30013732910157Q303.950114440918 108.4001434326172 301.42515640258796 109.97513198852539Q298.90019836425785 111.5501205444336 297.4377349853516 113.82508239746093Q295.97527160644535 116.10004425048828 295.97527160644535 119.29997253417969Q295.97527160644535 122.4499496459961 297.55026016235354 125.09990921020508Q299.12524871826173 127.74986877441407 302.3627067565918 129.34983520507814Q305.6001647949219 130.94980163574218 310.6250732421875 130.94980163574218Z"/><path d="M365.40000000000003 141.5V60.5H379.3502471923828V80.15000915527344L377.40024719238284 77.60000915527344Q378.87525329589846 73.69999084472657 381.2752670288086 70.44997863769532Q383.6752807617188 67.19996643066406 386.85032043457034 65.09995727539062Q389.9003128051758 62.82498626708984 393.7127906799317 61.5875Q397.52526855468756 60.350013732910156 401.50025024414066 60.08751373291016Q405.47523193359376 59.825013732910165 409.1002349853516 60.5V75.2002655029297Q405.17526855468753 74.1252670288086 400.32529220581057 74.58775939941407Q395.4753158569336 75.05025177001953 391.450341796875 77.7001953125Q387.62535552978517 80.12514801025391 385.38784103393556 83.67509841918945Q383.15032653808595 87.22504882812501 382.17530822753906 91.53751220703126Q381.20028991699223 95.8499755859375 381.20028991699223 100.59996948242187V141.5Z"/><path d="M515.4250274658203 141.5 515.4750244140625 91.00016174316406Q515.4750244140625 82.27520446777345 510.97506790161134 77.36273193359375Q506.47511138916013 72.45025939941407 499.1251525878906 72.45025939941407Q494.67516326904297 72.45025939941407 490.9376991271973 74.5002555847168Q487.2002349853516 76.55025177001953 484.9127670288086 80.65021896362305Q482.62529907226565 84.75018615722657 482.62529907226565 90.85009765625L475.0752380371094 87.04998168945312Q474.9502456665039 78.52499389648438 478.73775482177734 72.07499847412109Q482.52526397705077 65.62500305175782 489.0502708435058 62.037504577636724Q495.5752777099609 58.45000610351563 503.67527770996094 58.45000610351563Q516.7503265380859 58.45000610351563 523.9628189086914 66.32502670288086Q531.1753112792969 74.20004730224609 531.1753112792969 87.25006103515625L531.1253143310547 141.5ZM418.2749969482422 141.5V60.5H432.225244140625V83.90021057128907H434.0752868652344V141.5ZM466.9250122070313 141.5 466.9750091552734 91.35014038085939Q466.9750091552734 82.50019073486328 462.5125503540039 77.47522506713867Q458.0500915527344 72.45025939941407 450.5251434326172 72.45025939941407Q443.12520599365234 72.45025939941407 438.60024642944336 77.52521743774415Q434.0752868652344 82.60017547607421 434.0752868652344 90.85009765625L426.5252258300781 86.0500244140625Q426.5252258300781 78.1500213623047 430.35023498535156 71.91251754760742Q434.175244140625 65.67501373291016 440.71275482177737 62.062509918212896Q447.25026550292966 58.45000610351563 455.4752716064453 58.45000610351563Q464.10032653808594 58.45000610351563 470.1753288269043 62.11252975463868Q476.25033111572264 65.77505340576172 479.4378150939941 72.30006713867188Q482.62529907226565 78.82508087158203 482.62529907226565 87.40005187988282L482.57530212402344 141.5Z"/><path d="M592.025 143.75Q575.8249999999999 143.75 564.0874999999999 136.7Q552.3499999999999 129.65 546.0124999999999 116.97500000000001Q539.675 104.30000000000001 539.675 87.5Q539.675 70.7 546.0124999999999 58.025000000000006Q552.3499999999999 45.35000000000001 564.0874999999999 38.300000000000004Q575.8249999999999 31.25 592.025 31.25Q610.625 31.25 623.2625 40.475Q635.9 49.7 641.0749999999999 65.45L620.525 71.15Q617.525 61.325 610.4 55.8875Q603.275 50.45 592.025 50.45Q581.75 50.45 574.8875 55.025000000000006Q568.025 59.60000000000001 564.575 67.92500000000001Q561.125 76.25 561.125 87.5Q561.125 98.75 564.575 107.075Q568.025 115.4 574.8875 119.975Q581.75 124.55 592.025 124.55Q603.275 124.55 610.4 119.07499999999999Q617.525 113.6 620.525 103.85L641.0749999999999 109.55Q635.9 125.3 623.2625 134.525Q610.625 143.75 592.025 143.75Z"/><path d="M689.025 143.75Q676.8 143.75 667.5749999999999 138.275Q658.3499999999999 132.8 653.2124999999999 123.16250000000001Q648.0749999999999 113.525 648.0749999999999 101.0Q648.0749999999999 88.325 653.3249999999999 78.6875Q658.5749999999999 69.05 667.8 63.65Q677.025 58.25 689.025 58.25Q701.2499999999999 58.25 710.5124999999999 63.725Q719.775 69.2 724.9499999999999 78.8375Q730.1249999999999 88.475 730.1249999999999 101.0Q730.1249999999999 113.6 724.9124999999999 123.2375Q719.6999999999999 132.875 710.4375 138.3125Q701.175 143.75 689.025 143.75ZM689.025 124.7Q698.8499999999999 124.7 703.6875 118.0625Q708.525 111.425 708.525 101.0Q708.525 90.2 703.6125 83.75Q698.6999999999999 77.3 689.025 77.3Q682.3499999999999 77.3 678.0749999999999 80.30000000000001Q673.8 83.30000000000001 671.7375 88.625Q669.675 93.95 669.675 101.0Q669.675 111.875 674.5874999999999 118.2875Q679.4999999999999 124.7 689.025 124.7Z"/><path d="M741.6249999999999 141.5V60.5H759.6249999999999V80.30000000000001L757.6749999999998 77.75Q759.2499999999999 73.55 761.8749999999999 70.1Q764.4999999999999 66.65 768.3249999999999 64.4Q771.2499999999999 62.60000000000001 774.6999999999998 61.587500000000006Q778.1499999999999 60.575 781.8249999999998 60.3125Q785.4999999999999 60.05 789.1749999999998 60.5V79.55000000000001Q785.7999999999998 78.5 781.3374999999999 78.8375Q776.8749999999999 79.17500000000001 773.2749999999999 80.9Q769.6749999999998 82.55000000000001 767.1999999999998 85.28750000000001Q764.7249999999999 88.025 763.4499999999998 91.73750000000001Q762.1749999999998 95.45 762.1749999999998 100.1V141.5Z"/><path d="M836.0749999999998 143.75Q823.6249999999999 143.75 814.1374999999998 138.3875Q804.6499999999999 133.025 799.2874999999999 123.61250000000001Q793.9249999999998 114.2 793.9249999999998 102.05000000000001Q793.9249999999998 88.775 799.1749999999998 78.95Q804.4249999999998 69.125 813.6499999999999 63.6875Q822.8749999999999 58.25 834.8749999999999 58.25Q847.6249999999999 58.25 856.5499999999998 64.25Q865.4749999999998 70.25 869.7499999999998 81.125Q874.0249999999999 92.0 872.7499999999999 106.7H852.5749999999998V99.2Q852.5749999999998 86.825 848.6374999999998 81.3875Q844.6999999999998 75.95 835.7749999999999 75.95Q825.3499999999998 75.95 820.4374999999998 82.2875Q815.5249999999999 88.625 815.5249999999999 101.0Q815.5249999999999 112.325 820.4374999999998 118.5125Q825.3499999999998 124.7 834.8749999999999 124.7Q840.8749999999999 124.7 845.1499999999999 122.075Q849.4249999999998 119.45 851.6749999999998 114.5L872.0749999999998 120.35Q867.4999999999999 131.45 857.6374999999998 137.6Q847.7749999999999 143.75 836.0749999999998 143.75ZM809.2249999999998 106.7V91.55000000000001H862.9249999999998V106.7Z"/></g></svg>
