<svg xmlns="http://www.w3.org/2000/svg" viewBox="0.00 0.00 512.00 512.00"><path fill="#141414" d="M 445.70,258.00 C 444.70,274.10 439.70,291.00 432.90,305.40 C 426.20,319.80 415.90,333.10 405.40,344.30 C 395.00,355.40 382.50,364.60 370.30,372.30 C 358.20,380.10 345.30,386.00 332.70,390.80 C 320.00,395.50 307.00,399.00 294.20,400.70 C 281.50,402.40 268.20,402.70 256.00,400.90 C 243.80,399.00 231.30,395.10 220.80,389.60 C 210.20,384.00 200.50,375.90 192.70,367.60 C 185.00,359.30 179.20,349.00 174.30,339.70 C 169.40,330.30 166.70,320.50 163.50,311.40 C 160.30,302.30 158.10,293.90 155.10,285.00 C 152.20,276.10 148.70,267.80 145.70,258.00 C 142.80,248.20 138.90,237.70 137.40,226.20 C 135.80,214.70 134.60,201.50 136.60,189.10 C 138.70,176.70 142.90,162.90 149.70,151.70 C 156.50,140.50 166.60,129.70 177.50,122.00 C 188.30,114.20 201.90,108.60 215.00,105.10 C 228.10,101.60 242.40,100.80 256.00,100.90 C 269.60,100.90 283.30,102.90 296.80,105.60 C 310.40,108.20 324.00,111.70 337.50,116.80 C 351.00,121.90 365.20,127.70 378.00,136.00 C 390.80,144.30 404.10,154.50 414.30,166.60 C 424.50,178.80 433.90,193.70 439.10,208.90 C 444.30,224.20 446.80,241.90 445.70,258.00 Z"/></svg>
